<?xml version="1.0" encoding="utf-8"?>
<!-- Generator: Adobe Illustrator 22.0.1, SVG Export Plug-In . SVG Version: 6.00 Build 0)  -->
<svg version="1.1" id="Camada_1" xmlns="http://www.w3.org/2000/svg" xmlns:xlink="http://www.w3.org/1999/xlink" x="0px" y="0px"
	 viewBox="0 0 250 100" style="enable-background:new 0 0 250 100;" xml:space="preserve">
<style type="text/css">
	.st0{fill:#F0F5F9;}
</style>
<g>
	<g>
		<path class="st0" d="M36.8,60.6c-0.1,0.1-3,2.1-8.8,6.3c-3.4,2.4-6.4,4.2-9,5.4c-0.3,0.2-0.6,0.2-0.9,0.2c-0.7,0-1.4-0.5-2-1.4
			c-0.9-1.2-1.4-1.8-1.4-1.9c-0.1-4.4,0.2-10.6,0.8-18.5c0.8-8.4,1.1-14.5,1.1-18.2c0-2.6-0.1-5-0.3-7.2c0.7-0.7,1.5-1,2.5-1
			c1.9,0,3,0.7,3.3,2.1c0.2,4.1,0,10.3-0.5,18.5c-0.5,8.2-0.7,14.4-0.6,18.5c1.4-0.6,3.2-1.7,5.5-3.2c2.5-1.7,4.2-2.8,5.4-3.4
			c0.3,0,0.7,0,1.3-0.2c0.6-0.1,1.1-0.2,1.4-0.2c1,0,1.7,0.4,2.2,1.2C37.4,58.9,37.4,59.9,36.8,60.6z"/>
		<g>
			<path class="st0" d="M62.1,34.3c-0.3,2.5-1,5.9-2.2,10.2c-1.6,5.7-2.6,9.1-2.8,10.3c-0.8,3.7-2.3,7-4.6,10
				c-1.4,1.9-3,2.9-4.9,2.8c-1.6,0-2.8-1.1-3.6-3.1c-1.4-3.4-2.1-7.4-2.1-12c0-2.6,0.3-6.1,0.8-10.2c0,0.4-0.1-0.8-0.1-3.4
				c0-2.2,0.9-3.4,2.6-3.4c0.4,0,0.8,0.1,1.2,0.3c0.4,0.2,0.8,0.4,1.2,0.6c0,1.8,0,4.6-0.2,8.2c-0.2,3.8-0.3,6.6-0.3,8.3
				c0,1.8,0.1,3.5,0.2,5c0.1,0.8,0.4,2.2,1,4.4c1.5-1.7,2.7-4,3.6-6.8c0.3-0.9,0.9-3.5,1.7-7.7c0.7-3.2,1.5-5.7,2.3-7.5
				c0.3-0.5,0.5-1.5,0.7-2.9c0.2-1.4,0.4-2.4,0.7-2.9c0.4-0.9,1.1-1.3,2.1-1.3C60.7,33.1,61.6,33.5,62.1,34.3z M50.4,26.8
				c0.3,1.3,0.3,2.2-0.2,2.7c-0.5,0.5-1.1,0.7-2,0.6c-0.7,0-1.4-0.4-2.1-1c-0.7-0.6-1-1.3-1-2c0-0.4,0.2-0.9,0.5-1.3
				c0.4-0.4,0.7-0.6,1.1-0.5c0.7,0,1.4,0.1,2.1,0.2C49.7,25.6,50.2,26.1,50.4,26.8z M59.5,26.8c0.3,1.3,0.3,2.2-0.2,2.7
				c-0.5,0.5-1.1,0.7-2,0.6c-0.7,0-1.4-0.4-2-1c-0.7-0.6-1-1.3-1-2c0-0.4,0.2-0.9,0.5-1.3c0.4-0.4,0.7-0.6,1.1-0.5l2.1,0.2
				C58.8,25.6,59.3,26.1,59.5,26.8z"/>
		</g>
		<path class="st0" d="M83.8,61.4c0.2,0.6,0.3,1.1,0.3,1.5c0,0.7-0.3,1.4-0.9,1.9c-0.6,0.5-1,0.8-1.3,0.8c-1.8-0.3-2.9-1.8-3.4-4.3
			c-0.5-2.8-1.1-5.1-1.8-6.9c-1.2,0.1-2.5,0.2-3.7,0.3c-1.4,0.2-2.5,0.6-3.3,1.3c-0.4,1.1-0.9,3.1-1.6,6c-0.6,2.6-1.2,4.7-1.8,6
			c-0.3,0.7-0.9,0.8-1.8,0.5c-1.2-0.4-1.8-0.9-1.9-1.6c-0.1-1.4,0.3-3.2,1.2-5.6c1.1-2.6,1.7-4.5,1.8-5.7c0-0.3-0.2-0.7-0.7-1.1
			c-0.5-0.4-0.8-0.7-0.8-0.9c0-0.2,0.1-0.4,0.2-0.6c0.2-0.2,0.5-0.4,1.1-0.5c0.6-0.1,0.9-0.3,1-0.6c0.7-1.8,1.7-5.2,3.1-10.1
			c1.2-4.3,2.3-7.6,3.2-9.8c0.2-0.5,0.7-0.8,1.4-0.8c0.5,0,1,0.2,1.4,0.5c1,0.9,1.7,2.2,2,3.9c0.2,1.5,0.4,3,0.6,4.5
			C80,48.8,81.8,55.8,83.8,61.4z M75.9,51c-0.1-1.3-0.3-2.8-0.7-4.5c-0.4-1.5-0.7-2.9-1-4.4c-1.1,3-2,6-2.8,9
			C71.9,51,73.4,51,75.9,51z"/>
		<path class="st0" d="M109.2,31c-0.5,4.9-1,9.7-1.5,14.6c-0.6,5.8-0.9,10.6-0.9,14.5c0,1.3,0,2.5,0.1,3.8c0,0.6-0.2,1.1-0.6,1.5
			c-0.5,0.4-1,0.7-1.6,0.7c-1.1,0-2.1-0.8-2.8-2.3c-2.3-4.5-5.2-11.6-8.7-21.3c-0.1-0.2-0.2-0.3-0.3-0.3c-0.3,0-0.4,0.3-0.5,0.8
			c-0.6,5.2-0.9,10.6-0.9,16.4c0,2.8,0.1,5.6,0.2,8.4c0,1.1-0.3,1.8-0.9,2.2c-0.3,0.3-0.5,0.4-0.8,0.4c-0.3,0-0.6-0.1-1-0.3
			c-0.5-0.3-0.9-0.4-1-0.5c-0.5-0.1-0.8-0.6-0.9-1.3c0-0.6-0.1-1.2-0.1-1.8c-0.1-2-0.2-4.2-0.2-6.4c0-3.8,0.2-8.7,0.7-14.4
			c0.7-8.8,1.1-13.6,1.1-14.6c0-0.8,0.7-1.2,2-1.2c0.6-0.1,1.5,0.4,2.7,1.4c1.2,2.2,2.6,5.8,4.3,10.8c1.6,4.8,3.1,8.4,4.5,10.8
			c0.5-4.8,1.4-12.1,2.6-21.9c0.1-0.7,0.6-1.1,1.6-1.1c0.3,0,0.7,0.1,1.1,0.2c0.6,0.1,0.9,0.2,1,0.3C108.9,30.4,109.1,30.6,109.2,31
			z"/>
		<path class="st0" d="M135.5,31c-0.5,4.9-1,9.7-1.5,14.6c-0.6,5.8-0.9,10.6-0.9,14.5c0,1.3,0,2.5,0.1,3.8c0,0.6-0.2,1.1-0.6,1.5
			c-0.5,0.4-1,0.7-1.6,0.7c-1.1,0-2.1-0.8-2.8-2.3c-2.3-4.5-5.2-11.6-8.7-21.3c-0.1-0.2-0.2-0.3-0.3-0.3c-0.3,0-0.4,0.3-0.5,0.8
			c-0.6,5.2-0.9,10.6-0.9,16.4c0,2.8,0.1,5.6,0.2,8.4c0,1.1-0.3,1.8-0.9,2.2c-0.3,0.3-0.5,0.4-0.8,0.4c-0.3,0-0.6-0.1-1-0.3
			c-0.5-0.3-0.9-0.4-1-0.5c-0.5-0.1-0.8-0.6-0.9-1.3c0-0.6-0.1-1.2-0.1-1.8c-0.1-2-0.2-4.2-0.2-6.4c0-3.8,0.2-8.7,0.7-14.4
			c0.7-8.8,1.1-13.6,1.1-14.6c0-0.8,0.7-1.2,2-1.2c0.6-0.1,1.5,0.4,2.7,1.4c1.2,2.2,2.6,5.8,4.3,10.8c1.6,4.8,3.1,8.4,4.5,10.8
			c0.5-4.8,1.4-12.1,2.6-21.9c0.1-0.7,0.6-1.1,1.6-1.1c0.3,0,0.7,0.1,1.1,0.2c0.6,0.1,0.9,0.2,1,0.3C135.2,30.4,135.4,30.6,135.5,31
			z"/>
	</g>
	<g>
		<path class="st0" d="M156.8,31.1c0,0.7-0.5,1.4-1.6,1.9c-0.3,0.1-0.6,0.2-0.9,0.1c-0.5-0.1-0.8-0.2-0.8-0.2
			c-0.2,0-0.4,0.1-0.7,0.3c-2,2-2.9,4.4-2.9,7.2c0,1.1,0.2,2,0.5,2.9c0.1,0.4,1.5,3.2,4.1,8.4c1.7,3.5,2.6,6.4,2.6,8.9
			c0,2-0.5,3.9-1.5,5.8c-0.3,0.6-1.1,1.4-2.4,2.4c-1.1,0.8-2,1.1-2.8,1.1c-0.3,0-0.6-0.1-0.9-0.2c-1.1-0.5-1.6-1.1-1.6-1.8
			c0-0.4,0.3-1,0.8-1.6c0.1-0.2,0.5-0.3,1-0.3c0.5,0,0.9-0.3,1.1-0.7c0.8-1.6,1.1-3.2,1.1-4.9c0-2.4-1.2-5.8-3.5-10.3
			c-2.3-4.5-3.5-8.1-3.5-10.7c0-2.2,0.4-4.2,1.3-5.9c1-2,2.4-3.4,4.2-4.3c0.8-0.4,1.7-0.6,2.4-0.6c1.5,0,2.7,0.4,3.4,1.3
			C156.7,30.3,156.8,30.7,156.8,31.1z"/>
		<path class="st0" d="M166.9,36.4c0.1,1.1,0.1,2.1,0.1,3.3c0,2.5-0.3,6.2-0.8,11.2c-0.5,5-0.8,8.7-0.8,11.3c0,0.9,0,1.9,0.1,2.8
			c-0.3,1-1,1.5-2.1,1.5c-1.6-0.1-2.4-0.7-2.6-2c-0.1-1.3-0.2-2.6-0.2-4c0-2.5,0.3-6.1,0.9-11c0.6-4.9,0.9-8.6,0.9-11
			c0-0.9,0-1.9-0.1-2.8c0.4-0.7,1-1,1.9-1c0.7,0,1.4,0.2,2.1,0.6c0.1-0.1,0.3-0.2,0.3-0.2c0.1,0,0.2,0.2,0.2,0.5c0,0.4,0,0.7,0,0.8
			C166.8,36.3,166.8,36.4,166.9,36.4z"/>
		<path class="st0" d="M186.1,57.7c-0.1,0-2.2,1.5-6.4,4.5c-2.4,1.7-4.6,3-6.5,3.9c-0.2,0.1-0.4,0.2-0.7,0.2c-0.5,0-1-0.3-1.4-1
			c-0.7-0.9-1-1.3-1-1.4c-0.1-3.2,0.1-7.6,0.6-13.4c0.5-6.1,0.8-10.4,0.8-13.1c0-1.9-0.1-3.6-0.2-5.2c0.5-0.5,1.1-0.7,1.8-0.7
			c1.4,0,2.2,0.5,2.4,1.5c0.1,3,0,7.4-0.4,13.4c-0.4,5.9-0.5,10.4-0.4,13.4c1-0.4,2.3-1.2,4-2.3c1.8-1.2,3.1-2,3.9-2.4
			c0.2,0,0.5,0,1-0.1c0.5-0.1,0.8-0.1,1-0.1c0.7,0,1.3,0.3,1.6,0.9C186.5,56.5,186.5,57.1,186.1,57.7z"/>
		<path class="st0" d="M212.2,32.7c-1.4,2.6-3.4,7.6-6,14.9c-0.8,2.1-1.7,5.7-2.7,10.6c-1,4.7-2,8.3-2.9,10.7
			c-0.3,0.4-0.7,0.5-1.1,0.5c-0.5,0-1.2-0.3-2-0.8c-1.4-3.4-3.1-8.9-5-16.7c-1.8-7.4-3.6-13-5.3-16.8c0.5-0.9,0.9-1.4,1.2-1.4
			c0.3-0.2,0.6-0.3,0.9-0.3c0.6,0,1.6,0.5,3,1.6c1.3,3,2.6,6.6,3.8,10.9c0.9,3.7,1.9,7.5,2.9,11.2c1.3-4.4,2.7-8.9,4-13.3
			c1.6-5,3.2-9.3,4.9-13c0.5-0.9,1.5-1.3,2.8-0.9c0.1,0,0.3,0.2,0.5,0.4c0.2,0.2,0.5,0.4,0.8,0.4c0.3,0,0.5,0.3,0.5,0.8
			C212.5,32,212.4,32.4,212.2,32.7z"/>
		<path class="st0" d="M234.9,65.7c0.3,0.8,0.5,1.5,0.5,2.1c0,1-0.4,1.9-1.3,2.6c-0.9,0.8-1.4,1.1-1.7,1.1c-2.5-0.5-4-2.4-4.7-6
			c-0.7-3.8-1.5-7-2.5-9.6c-1.7,0.2-3.4,0.3-5.1,0.5c-2,0.3-3.5,0.9-4.6,1.8c-0.6,1.6-1.3,4.3-2.2,8.3c-0.9,3.7-1.7,6.5-2.5,8.4
			c-0.4,0.9-1.3,1.2-2.6,0.8c-1.7-0.6-2.5-1.3-2.6-2.3c-0.2-1.9,0.4-4.5,1.7-7.7c1.5-3.7,2.3-6.3,2.5-7.8c0-0.5-0.3-1-1-1.5
			c-0.7-0.6-1.1-1-1.1-1.3c0-0.3,0.1-0.5,0.3-0.8c0.2-0.3,0.8-0.5,1.6-0.7c0.8-0.2,1.3-0.4,1.4-0.8c0.9-2.5,2.3-7.2,4.3-14
			c1.7-5.9,3.1-10.5,4.4-13.6c0.3-0.7,0.9-1.1,1.9-1.1c0.7,0,1.3,0.2,1.9,0.7c1.4,1.2,2.3,3,2.7,5.4c0.3,2.1,0.6,4.1,0.8,6.2
			C229.5,48.3,232.1,58,234.9,65.7z M223.9,51.3c-0.2-1.9-0.5-3.9-1-6.3c-0.5-2-1-4-1.4-6c-1.5,4.2-2.8,8.3-3.9,12.5
			C218.3,51.4,220.4,51.3,223.9,51.3z"/>
	</g>
</g>
</svg>
